<svg width="100%" height="100%" viewBox="0 0 40 40" xmlns="http://www.w3.org/2000/svg" class="drop-shadow-sm">
    <g fill="none">
        <path fill="#48eeff" stroke="#231f20" stroke-miterlimit="10" d="M38.75 20a33 33 0 0 0-1.54-10c0-.51-3.25-4.12-6.56-5.92S21.92.18 19.5.54c-1.66-.06-6.66 1.7-10.06 3.55S3.06 8.68 2.91 9.56A34.3 34.3 0 0 0 1.25 20a34.3 34.3 0 0 0 1.66 10.44c.15.87 3.09 3.56 6.53 5.47s8.4 3.61 10.06 3.55c2.42.36 7.73-1.69 11.15-3.55s6.6-5.41 6.56-5.92A33 33 0 0 0 38.75 20Z" stroke-width="1" />
        <path stroke="#231f20" stroke-linecap="round" stroke-miterlimit="10" d="M7.25 14.32c.71.54 1.46 1 2.19 1.51C12.85 18 18.13 20.11 20.59 20c1.65-.1 6.65-2 10.06-4.12c.72-.45 1.43-.95 2.1-1.46" stroke-width="1" />
        <path stroke="#231f20" stroke-linecap="round" stroke-miterlimit="10" d="M20 32.5V22.32c0-2.32 1.73-2.57 1.73-2.57" stroke-width="1" />
        <path stroke="#231f20" stroke-linecap="round" stroke-miterlimit="10" d="M20 22.32a2.59 2.59 0 0 0-1.71-2.64" stroke-width="1" />
        <path stroke="#fff" stroke-linecap="round" stroke-linejoin="round" d="M26.13 5.34A17.6 17.6 0 0 1 30.77 8" stroke-width="1" />
    </g>
</svg>
